<svg width="217" height="140" viewBox="0 0 217 140" fill="none" xmlns="http://www.w3.org/2000/svg">
<ellipse cx="68.5395" cy="71.857" rx="50.4073" ry="49.1938" transform="rotate(30 68.5395 71.857)" fill="#E9E4F7"/>
<path d="M192.403 93.4127C178.819 116.942 148.262 124.732 124.153 110.812C100.043 96.8926 91.511 66.5345 105.095 43.0054C118.68 19.4764 149.237 11.6864 173.346 25.606C197.456 39.5256 205.988 69.8837 192.403 93.4127Z" fill="#E9E4F7"/>
<path d="M95.154 75.8783C95.154 91.8516 77.8007 96.7022 67.3887 77.0351C53.506 95.5454 37.3096 91.8516 37.3096 75.8783C37.3096 59.905 50.2585 46.9561 66.2318 46.9561C82.2051 46.9561 95.154 59.905 95.154 75.8783Z" fill="#4234F3"/>
<path d="M119.695 61.736C119.695 45.7627 137.048 40.912 147.46 60.5791C161.343 42.0689 177.539 45.7627 177.539 61.736C177.539 77.7093 164.59 90.6582 148.617 90.6582C132.644 90.6582 119.695 77.7093 119.695 61.736Z" fill="#4234F3"/>
</svg>
