<svg width="130" height="130" viewBox="0 0 130 130" fill="none" xmlns="http://www.w3.org/2000/svg">
<circle cx="65" cy="65" r="65" fill="#E9E4F7"/>
<path d="M67.7052 91.4911H63.0765V87.6589C54.8901 87.2884 49.2952 84.4797 46.8664 79.6909C45.3016 76.6057 48.3112 73.6283 51.7706 73.6283C55.2737 73.6283 58.5748 77.068 61.948 78.0129C62.3101 78.1143 62.6877 78.1849 63.0765 78.2207V69.9544L58.9796 69.0993C50.5978 67.3256 46.2506 62.6383 46.2506 55.3855C46.2506 46.8025 52.318 41.5134 63.0765 40.7849V36.5093H67.7052V40.8483C72.0256 41.2703 75.6363 42.5797 78.3182 44.582C83.6681 48.5765 78.1662 54.9738 71.4896 54.9738C71.427 52.9151 69.7695 50.9831 67.7052 50.5714V58.711L71.7398 59.4079C80.1528 60.8964 84.5 65.4571 84.5 72.8049C84.5 81.4195 78.5577 86.677 67.7052 87.5954V91.4911ZM72.1776 74.3885C72.1776 72.4565 70.6764 71.2213 67.7052 70.7146V78.189C70.4888 77.9357 72.1776 76.4788 72.1776 74.3885ZM58.9796 54.087C58.9796 55.9239 60.4182 57.2225 63.0765 57.7926V50.5081C60.6372 50.6665 58.9796 52.0917 58.9796 54.087Z" fill="#4234F3"/>
</svg>
