<svg width="195" height="180" viewBox="0 0 195 180" fill="none" xmlns="http://www.w3.org/2000/svg">
<path d="M0 32C0 20.7989 0 15.1984 2.17987 10.9202C4.09734 7.15695 7.15695 4.09734 10.9202 2.17987C15.1984 0 20.799 0 32 0H163C174.201 0 179.802 0 184.08 2.17987C187.843 4.09734 190.903 7.15695 192.82 10.9202C195 15.1984 195 20.799 195 32V148C195 159.201 195 164.802 192.82 169.08C190.903 172.843 187.843 175.903 184.08 177.82C179.802 180 174.201 180 163 180H32C20.7989 180 15.1984 180 10.9202 177.82C7.15695 175.903 4.09734 172.843 2.17987 169.08C0 164.802 0 159.201 0 148V32Z" fill="#4234F3"/>
<circle cx="98" cy="90" r="45" fill="#F4F3FD"/>
<path d="M100.781 117.25H96.1562V113.469C88.014 113.105 82.4374 110.357 79.9928 105.672C78.3938 102.607 81.4028 99.625 84.8594 99.625C88.3601 99.625 91.6891 103.052 95.0694 103.962C95.4187 104.056 95.7822 104.122 96.1562 104.156V96L92.0625 95.1562C83.6875 93.4062 79.3438 88.7812 79.3438 81.625C79.3438 73.1562 85.4062 67.9375 96.1562 67.2188V63H100.781V67.2812C105.049 67.6929 108.623 68.9602 111.293 70.8978C116.693 74.816 111.234 81.2188 104.562 81.2188C104.5 79.1875 102.844 77.2812 100.781 76.875V84.9062L104.812 85.5938C113.219 87.0625 117.562 91.5625 117.562 98.8125C117.562 107.312 111.625 112.5 100.781 113.406V117.25ZM105.25 100.375C105.25 98.4688 103.75 97.25 100.781 96.75V104.125C103.562 103.875 105.25 102.438 105.25 100.375ZM92.0625 80.3438C92.0625 82.1562 93.5 83.4375 96.1562 84V76.8125C93.7188 76.9688 92.0625 78.375 92.0625 80.3438Z" fill="#4234F3"/>
</svg>
