<svg width="195" height="180" viewBox="0 0 195 180" fill="none" xmlns="http://www.w3.org/2000/svg">
<path d="M0 32C0 20.7989 0 15.1984 2.17987 10.9202C4.09734 7.15695 7.15695 4.09734 10.9202 2.17987C15.1984 0 20.799 0 32 0H163C174.201 0 179.802 0 184.08 2.17987C187.843 4.09734 190.903 7.15695 192.82 10.9202C195 15.1984 195 20.799 195 32V148C195 159.201 195 164.802 192.82 169.08C190.903 172.843 187.843 175.903 184.08 177.82C179.802 180 174.201 180 163 180H32C20.7989 180 15.1984 180 10.9202 177.82C7.15695 175.903 4.09734 172.843 2.17987 169.08C0 164.802 0 159.201 0 148V32Z" fill="#4234F3"/>
<ellipse cx="80.4981" cy="97.0535" rx="21.7857" ry="21.2613" transform="rotate(30 80.4981 97.0535)" fill="#FCFCFE"/>
<ellipse cx="115.498" cy="93.5969" rx="21.7857" ry="21.2613" transform="rotate(30 115.498 93.5969)" fill="#FCFCFE"/>
<path d="M92 98.7913C92 105.695 84.5 107.791 80 99.2913C74 107.291 67 105.695 67 98.7913C67 91.8877 72.5964 86.2913 79.5 86.2913C86.4036 86.2913 92 91.8877 92 98.7913Z" fill="#4234F3"/>
<path d="M104 92.3584C104 85.4548 111.5 83.3584 116 91.8584C122 83.8584 129 85.4548 129 92.3584C129 99.262 123.404 104.858 116.5 104.858C109.596 104.858 104 99.262 104 92.3584Z" fill="#4234F3"/>
</svg>
