<svg width="25" height="25" viewBox="0 0 25 25" fill="none" xmlns="http://www.w3.org/2000/svg">
<path d="M23.8972 0H12.747C12.28 0 11.813 0.295909 11.813 0.769363V2.54482C11.813 3.01827 12.2216 3.55091 12.747 3.55091H17.3589C17.8843 3.55091 18.1762 4.14272 17.7675 4.49781L10.6416 11.7217C10.2913 12.0768 10.2913 12.6095 10.6416 12.9646L11.8675 14.2074C12.2178 14.5625 12.7432 14.5625 13.0935 14.2074L20.2194 6.98345C20.5697 6.62836 21.1535 6.86508 21.1535 7.39772V12.0731C21.1535 12.5465 21.6205 13.0792 22.0875 13.0792H23.7805C24.2475 13.0792 24.6561 12.5465 24.6561 12.0731V0.828545C24.6561 0.295909 24.3642 0 23.8972 0Z" fill="#4234F3"/>
<path d="M19.7862 10.6724L17.8249 12.7192C17.4788 13.0701 17.3057 13.4794 17.3057 13.9473V20.6139C17.3057 21.0818 16.9019 21.4911 16.4404 21.4911H4.32643C3.86495 21.4911 3.46115 21.0818 3.46115 20.6139V8.33323C3.46115 7.86539 3.86495 7.45604 4.32643 7.45604H10.9603C11.4218 7.45604 11.8833 7.2806 12.1717 6.92972L14.133 4.94142C14.4791 4.59054 14.2484 3.94727 13.7292 3.94727H2.30743C1.03834 3.94727 0 4.9999 0 6.28645V22.6607C0 23.9473 1.03834 24.9999 2.30743 24.9999H18.4594C19.7285 24.9999 20.7669 23.9473 20.7669 22.6607V11.0818C20.7669 10.5555 20.1323 10.3215 19.7862 10.6724Z" fill="#4234F3"/>
</svg>
