<svg width="22" height="22" viewBox="0 0 22 22" fill="none" xmlns="http://www.w3.org/2000/svg">
<path fill-rule="evenodd" clip-rule="evenodd" d="M4.4 5.18182H17.6C17.9667 5.18182 18.3113 5.26909 18.6149 5.42764L12.1 10.2727C11.7827 10.5088 11.3967 10.6364 11 10.6364C10.6033 10.6364 10.2173 10.5088 9.9 10.2727L3.38507 5.42764C3.68867 5.26909 4.0348 5.18182 4.4 5.18182ZM2.20147 7.27346L2.2 7.36364V14.6364C2.2 15.215 2.43179 15.77 2.84437 16.1791C3.25695 16.5883 3.81652 16.8182 4.4 16.8182H17.6C18.1835 16.8182 18.7431 16.5883 19.1556 16.1791C19.5682 15.77 19.8 15.215 19.8 14.6364V7.36364L19.7985 7.27346L13.42 12.0182C12.7218 12.5375 11.8727 12.8182 11 12.8182C10.1273 12.8182 9.27815 12.5375 8.58 12.0182L2.20147 7.27346ZM0 7.36364C0 6.20633 0.46357 5.09642 1.28873 4.27808C2.11389 3.45974 3.23305 3 4.4 3H17.6C18.767 3 19.8861 3.45974 20.7113 4.27808C21.5364 5.09642 22 6.20633 22 7.36364V14.6364C22 15.7937 21.5364 16.9036 20.7113 17.7219C19.8861 18.5403 18.767 19 17.6 19H4.4C3.23305 19 2.11389 18.5403 1.28873 17.7219C0.46357 16.9036 0 15.7937 0 14.6364V7.36364Z" fill="#212121"/>
</svg>
