<svg width="22" height="22" viewBox="0 0 22 22" fill="none" xmlns="http://www.w3.org/2000/svg">
<path fill-rule="evenodd" clip-rule="evenodd" d="M3.3256 11C3.3256 6.52911 6.86568 2.90476 11.2326 2.90476C15.5994 2.90476 19.1395 6.52911 19.1395 11C19.1395 15.4708 15.5994 19.0952 11.2326 19.0952C9.67702 19.0952 8.22909 18.6363 7.00742 17.8439C6.78007 17.6964 6.50147 17.657 6.24357 17.7358L3.56529 18.5542L4.5737 16.1383C4.69289 15.8528 4.66864 15.5258 4.50872 15.262C3.75879 14.0247 3.3256 12.5656 3.3256 11ZM11.2326 1C5.83817 1 1.46514 5.47714 1.46514 11C1.46514 12.7505 1.90527 14.3984 2.67875 15.8311L1.07486 19.6733C0.933069 20.013 0.995918 20.406 1.23611 20.6816C1.47631 20.9573 1.85053 21.0659 2.19627 20.9601L6.38178 19.6814C7.81158 20.5204 9.46856 21 11.2326 21C16.627 21 21 16.5228 21 11C21 5.47714 16.627 1 11.2326 1ZM13.3651 13.0785L12.1426 13.9601C11.57 13.6262 10.937 13.1601 10.302 12.51C9.64195 11.8342 9.15258 11.1365 8.79174 10.4965L9.56865 9.82131C9.90205 9.5316 9.9933 9.04315 9.78791 8.64787L8.79799 6.74311C8.66469 6.48663 8.42434 6.30646 8.14526 6.25384C7.86617 6.20122 7.57889 6.28189 7.36509 6.47293L7.07159 6.73518C6.3658 7.36583 5.94837 8.40217 6.29434 9.45151C6.65301 10.5393 7.41845 12.2514 8.98653 13.8568C10.6736 15.5841 12.3873 16.2643 13.3894 16.5284C14.1968 16.7412 14.9609 16.456 15.4993 16.0068L16.0496 15.5478C16.2849 15.3515 16.4119 15.0499 16.3898 14.7399C16.3675 14.4299 16.199 14.1504 15.9381 13.9913L14.3769 13.0389C14.0616 12.8466 13.6653 12.8621 13.3651 13.0785Z" fill="#212121"/>
</svg>
